<!DOCTYPE svg PUBLIC "-//W3C//DTD SVG 20010904//EN" "http://www.w3.org/TR/2001/REC-SVG-20010904/DTD/svg10.dtd">
<svg version="1.0" xmlns="http://www.w3.org/2000/svg" width="12px" height="13px" viewBox="0 0 120 130" preserveAspectRatio="xMidYMid meet">
<g id="layer101" fill="#ffffff" stroke="none">
 <path d="M3 114 c-3 -9 3 -21 16 -31 l22 -15 -21 -23 c-30 -32 -16 -54 16 -24 23 21 25 22 43 5 33 -30 57 0 26 31 -14 14 -14 17 0 32 16 19 20 41 7 41 -5 0 -17 -9 -27 -20 l-18 -20 -19 20 c-23 24 -37 25 -45 4z"/>
 </g>

</svg>