<!DOCTYPE svg PUBLIC "-//W3C//DTD SVG 20010904//EN" "http://www.w3.org/TR/2001/REC-SVG-20010904/DTD/svg10.dtd">
<svg version="1.0" xmlns="http://www.w3.org/2000/svg" width="55px" height="60px" viewBox="0 0 550 600" preserveAspectRatio="xMidYMid meet">
<g id="layer101" fill="#670e7a" stroke="none">
 <path d="M60 593 c-23 -9 -60 -45 -60 -60 0 -8 12 -13 31 -13 22 0 43 -11 70 -35 22 -19 48 -35 59 -35 11 0 20 -5 20 -12 0 -7 72 -108 161 -225 131 -174 165 -213 185 -213 47 0 28 43 -121 270 -79 121 -149 220 -154 220 -5 0 -14 14 -20 32 -20 58 -48 78 -105 77 -28 0 -58 -3 -66 -6z m114 -35 c14 -13 26 -34 28 -48 3 -21 -2 -26 -26 -28 -21 -3 -37 4 -60 26 -17 16 -40 34 -51 40 -18 9 -16 11 15 20 53 15 67 14 94 -10z m100 -140 c134 -203 247 -380 244 -383 -6 -6 -300 387 -306 407 -9 36 33 19 62 -24z"/>
 </g>

</svg>